<svg width="124" height="124" viewBox="0 0 124 124" fill="none" xmlns="http://www.w3.org/2000/svg">
<g id="Group 5852">
<path id="Vector" d="M98.5735 15.0136C87.2725 6.42855 73.2681 2.105 59.0554 2.81334C44.8426 3.52167 31.3449 9.21586 20.9671 18.8813C10.5892 28.5468 4.00552 41.5557 2.38895 55.5902C0.772376 69.6246 4.22797 83.773 12.14 95.5143C20.0521 107.256 31.9066 115.827 45.5914 119.702C59.2763 123.576 73.9025 122.502 86.864 116.671C99.8254 110.84 110.28 100.63 116.366 87.8606C122.451 75.0914 123.772 60.5923 120.092 46.9468" stroke="#007832" stroke-width="3.53982" stroke-linecap="round" stroke-linejoin="round"/>
<path id="Vector_2" d="M55.6889 66.6767C55.6465 71.6171 53.9474 75.8969 50.4642 79.4528C50.364 79.5758 50.2395 79.6772 50.0983 79.7505C49.9571 79.8238 49.8022 79.8676 49.6432 79.8792C49.4843 79.8907 49.3247 79.8697 49.1742 79.8175C49.0238 79.7653 48.8857 79.6831 48.7686 79.5758C48.2695 79.112 48.273 78.4092 48.8252 77.8435C50.7779 75.9095 52.1674 73.4874 52.8465 70.8335C54.1916 65.3696 53.0447 60.4679 49.3385 56.1846C49.1615 55.9808 48.9633 55.7946 48.7828 55.5943C48.2872 55.0391 48.2836 54.3575 48.7651 53.9077C48.882 53.8005 49.0197 53.7181 49.1698 53.6657C49.3199 53.6132 49.4793 53.5917 49.638 53.6026C49.7968 53.6135 49.9517 53.6564 50.0931 53.7288C50.2346 53.8012 50.3596 53.9016 50.4606 54.0237C51.7954 55.3443 52.9048 56.8717 53.7456 58.5459C55.0427 61.0616 55.7094 63.8508 55.6889 66.6767Z" fill="#007832" stroke="#007832" stroke-width="0.382301" stroke-miterlimit="10"/>
<path id="Vector_3" d="M49.0972 67.2074C49.0003 70.0265 47.8509 72.7091 45.8725 74.7339C45.4618 75.1626 45.0052 75.391 44.4176 75.1415C43.6388 74.8147 43.4795 73.9152 44.1061 73.2441C45.1461 72.1745 45.9153 70.8751 46.3503 69.4527C47.3167 66.1498 46.6371 63.2122 44.4318 60.5945C44.2866 60.4223 44.1132 60.2712 43.9787 60.092C43.7959 59.8732 43.7037 59.5935 43.7208 59.3097C43.7379 59.026 43.8629 58.7592 44.0707 58.5635C44.2703 58.3572 44.5438 58.2371 44.8319 58.2292C45.12 58.2213 45.3997 58.3262 45.6105 58.5214C46.0518 58.9401 46.4567 59.395 46.8211 59.8812C48.2866 61.8243 49.076 64.2102 49.0972 67.2074Z" fill="#007832" stroke="#007832" stroke-width="0.382301" stroke-miterlimit="10"/>
<path id="Vector_4" d="M35.2344 55.6714C36.445 42.5159 46.6361 31.8235 62.3176 31.8235C77.999 31.8235 88.1937 42.5159 89.4007 55.6714" stroke="#007832" stroke-width="2.47788" stroke-linecap="round" stroke-linejoin="round"/>
<path id="Vector_5" d="M87.1758 75.2258H91.3775C93.2041 75.2258 94.6802 73.4689 94.6802 71.2904V61.2937C94.6802 59.1222 93.2041 57.3618 91.3775 57.3618H87.1758V75.2258Z" stroke="#007832" stroke-width="2.47788" stroke-linecap="round" stroke-linejoin="round"/>
<path id="Vector_6" d="M97.4414 72.3161H98.8573C99.4733 72.3161 99.9724 71.1284 99.9724 69.6632V62.9132C99.9724 61.4445 99.4733 60.2568 98.8573 60.2568H97.4414V72.3161Z" fill="#007832"/>
<path id="Vector_7" d="M69.9414 89.6254C81.9272 91.7723 87.5945 83.3955 89.6228 75.5352" stroke="#007832" stroke-width="2.47788" stroke-linecap="round" stroke-linejoin="round"/>
<path id="Vector_8" d="M69.94 93.0477C71.8441 93.0477 73.3878 91.5154 73.3878 89.6253C73.3878 87.7351 71.8441 86.2029 69.94 86.2029C68.0358 86.2029 66.4922 87.7351 66.4922 89.6253C66.4922 91.5154 68.0358 93.0477 69.94 93.0477Z" fill="#007832"/>
<path id="Vector_9" d="M36.6841 57.3513H32.4859C30.6593 57.3513 29.1797 59.1082 29.1797 61.2867V71.2904C29.1797 73.4655 30.6593 75.2259 32.4859 75.2259H36.6841V57.3513Z" stroke="#007832" stroke-width="2.47788" stroke-linecap="round" stroke-linejoin="round"/>
<path id="Vector_10" d="M26.4216 60.2568H25.0057C24.3897 60.2568 23.8906 61.4445 23.8906 62.9132V69.6632C23.8906 71.1284 24.3897 72.3161 25.0057 72.3161H26.4216V60.2568Z" fill="#007832"/>
</g>
</svg>
