<svg width="121" height="120" viewBox="0 0 121 120" fill="none" xmlns="http://www.w3.org/2000/svg">
<g id="Ebene_1" clip-path="url(#clip0_1776_13619)">
<path id="Vector" d="M96.0705 13.5122C70.4022 -6.12683 33.6607 -1.24878 14.0119 24.4293C-5.62708 50.0976 -0.749026 86.839 24.929 106.488C50.5973 126.137 87.3388 121.249 106.988 95.5805C118.031 81.1512 121.749 62.4195 117.046 44.8683" stroke="#007832" stroke-width="3" stroke-linecap="round" stroke-linejoin="round"/>
<path id="Vector_2" d="M34.5293 58.3709V88.3514H85.6415V57.6587" stroke="#007832" stroke-width="2" stroke-linecap="round" stroke-linejoin="round"/>
<path id="Vector_3" d="M95.8857 57.5025L60.4321 28.8489L24.8516 57.6196" stroke="#007832" stroke-width="2" stroke-linecap="round" stroke-linejoin="round"/>
<path id="Vector_4" d="M55.6714 75.7561C57.2617 77.1609 58.9397 78.478 60.6861 79.6878C69.0568 73.8244 71.9251 69.1414 72.2178 65.3463V64.0292C71.8958 60.0683 69.2812 58 67.047 57.7756C66.6763 57.7366 66.3251 57.717 66.0129 57.717C63.3983 57.717 62.1495 58.8487 60.7153 60.5561C59.2812 58.8487 58.0324 57.717 55.4178 57.717C55.0958 57.717 54.7446 57.7366 54.3836 57.7756C52.1202 58 49.5153 60.0683 49.2129 64.0292V65.3463C49.3202 66.6829 49.6812 67.9902 50.2861 69.1902" stroke="#007832" stroke-width="2" stroke-linecap="round" stroke-linejoin="round"/>
<path id="Vector_5" d="M43.0957 69.3563H54.3933L57.4274 65.7173L60.2079 72.4002L62.803 68.2148H65.3201" stroke="#007832" stroke-width="2" stroke-linecap="round" stroke-linejoin="round"/>
</g>
<defs>
<clipPath id="clip0_1776_13619">
<rect width="120" height="120" fill="white" transform="translate(0.5)"/>
</clipPath>
</defs>
</svg>
