<svg width="124" height="124" viewBox="0 0 124 124" fill="none" xmlns="http://www.w3.org/2000/svg">
<g id="Group 5850">
<path id="Vector" d="M98.5735 14.2753C87.2725 5.69027 73.2681 1.36672 59.0554 2.07505C44.8426 2.78338 31.3449 8.47758 20.9671 18.1431C10.5892 27.8085 4.00552 40.8175 2.38895 54.8519C0.772376 68.8864 4.22797 83.0347 12.14 94.776C20.0521 106.517 31.9066 115.089 45.5914 118.964C59.2763 122.838 73.9025 121.764 86.864 115.933C99.8254 110.101 110.28 99.8915 116.366 87.1223C122.451 74.3531 123.772 59.854 120.092 46.2085" stroke="#007832" stroke-width="3.53982" stroke-linecap="round" stroke-linejoin="round"/>
<path id="Vector_2" d="M63.2575 42.368V80.7594M47.3672 73.4086V84.0096C47.3681 84.8565 47.7074 85.6683 48.3107 86.2671C48.9139 86.8659 49.7318 87.2027 50.5849 87.2037H63.2575V89.5544C63.2482 89.9313 63.3282 90.3051 63.4912 90.6456C63.6541 90.9862 63.8954 91.284 64.1955 91.5151C64.6033 91.82 65.1009 91.983 65.6114 91.9789C65.8606 91.9781 66.1085 91.9426 66.3477 91.8735L83.7707 86.9542C84.4565 86.7447 85.0588 86.3268 85.4926 85.7594C85.9264 85.1921 86.1697 84.5038 86.1884 83.7918V39.6132C86.1687 38.9014 85.9249 38.2137 85.4913 37.6465C85.0577 37.0793 84.456 36.6612 83.7707 36.4508L66.3477 31.5315C65.986 31.4154 65.6014 31.3877 65.2266 31.4505C64.8518 31.5134 64.4977 31.665 64.1945 31.8926C63.8912 32.1201 63.6477 32.4169 63.4846 32.7578C63.3215 33.0986 63.2436 33.4735 63.2575 33.8506V35.9342H50.5849C49.7318 35.9352 48.9139 36.272 48.3107 36.8708C47.7074 37.4696 47.3681 38.2814 47.3672 39.1283V49.515" stroke="#007832" stroke-width="2.47788" stroke-linecap="round" stroke-linejoin="round"/>
<path id="Vector_3" d="M27.6445 61.7078L50.5861 61.8033" stroke="#007832" stroke-width="2.47788" stroke-linecap="round" stroke-linejoin="round"/>
<path id="Vector_4" d="M43.5156 68.8162L50.5847 61.8027" stroke="#007832" stroke-width="2.47788" stroke-linecap="round" stroke-linejoin="round"/>
<path id="Vector_5" d="M43.5742 54.7295L50.5831 61.8027" stroke="#007832" stroke-width="2.47788" stroke-linecap="round" stroke-linejoin="round"/>
</g>
</svg>
