<svg width="124" height="124" viewBox="0 0 124 124" fill="none" xmlns="http://www.w3.org/2000/svg">
<g id="Group 5854">
<path id="Vector" d="M98.5735 14.2753C87.2725 5.69027 73.2681 1.36672 59.0554 2.07505C44.8426 2.78338 31.3449 8.47758 20.9671 18.1431C10.5892 27.8085 4.00552 40.8175 2.38895 54.8519C0.772376 68.8864 4.22797 83.0347 12.14 94.776C20.0521 106.517 31.9066 115.089 45.5914 118.964C59.2763 122.838 73.9025 121.764 86.864 115.933C99.8254 110.101 110.28 99.8915 116.366 87.1223C122.451 74.3531 123.772 59.854 120.092 46.2085" stroke="#007832" stroke-width="3.53982" stroke-linecap="round" stroke-linejoin="round"/>
<path id="Vector_2" d="M56.5126 32.9863H28.148C26.7287 32.9863 25.5781 34.1284 25.5781 35.5373V53.6895C25.5781 55.0983 26.7287 56.2405 28.148 56.2405H56.5126C57.932 56.2405 59.0826 55.0983 59.0826 53.6895V35.5373C59.0826 34.1284 57.932 32.9863 56.5126 32.9863Z" stroke="#007832" stroke-width="2.47788" stroke-miterlimit="10"/>
<path id="Vector_3" d="M42.3125 56.4512V61.7289" stroke="#007832" stroke-width="2.47788" stroke-linecap="round" stroke-linejoin="round"/>
<path id="Vector_4" d="M31.8242 62.0977H52.8472" stroke="#007832" stroke-width="2.47788" stroke-linecap="round" stroke-linejoin="round"/>
<path id="Vector_5" d="M95.7158 61.2966H67.3512C65.9318 61.2966 64.7812 62.4387 64.7812 63.8476V81.9998C64.7812 83.4086 65.9318 84.5508 67.3512 84.5508H95.7158C97.1351 84.5508 98.2857 83.4086 98.2857 81.9998V63.8476C98.2857 62.4387 97.1351 61.2966 95.7158 61.2966Z" stroke="#007832" stroke-width="2.47788" stroke-miterlimit="10"/>
<path id="Vector_6" d="M81.5078 84.7615V90.0392" stroke="#007832" stroke-width="2.47788" stroke-linecap="round" stroke-linejoin="round"/>
<path id="Vector_7" d="M71.0234 90.4082H92.0464" stroke="#007832" stroke-width="2.47788" stroke-linecap="round" stroke-linejoin="round"/>
<path id="Vector_8" d="M70.3633 44.6133H78.7385" stroke="#007832" stroke-width="2.47788" stroke-linecap="round" stroke-linejoin="round"/>
<path id="Vector_9" d="M81.5312 50.0105V52.7099" stroke="#007832" stroke-width="2.47788" stroke-linecap="round" stroke-linejoin="round"/>
<path id="Vector_10" d="M53.4999 78.7812H45.1211" stroke="#007832" stroke-width="2.47788" stroke-linecap="round" stroke-linejoin="round"/>
<path id="Vector_11" d="M42.3281 73.385V70.6855" stroke="#007832" stroke-width="2.47788" stroke-linecap="round" stroke-linejoin="round"/>
</g>
</svg>
