<svg width="40" height="40" viewBox="0 0 40 40" fill="none" xmlns="http://www.w3.org/2000/svg">
<g id="linkedin">
<path id="Fill-1" fill-rule="evenodd" clip-rule="evenodd" d="M29 28H25.022V21.6721C25.022 20.0152 24.4001 18.8857 23.0312 18.8857C21.9845 18.8857 21.4022 19.648 21.1313 20.3842C21.0305 20.647 21.0458 21.0142 21.0458 21.3832V28H17.1038C17.1038 28 17.1551 16.7905 17.1038 15.7717H21.0458V17.6905C21.2789 16.8517 22.538 15.6547 24.5477 15.6547C27.0407 15.6547 29 17.4142 29 21.1996V28ZM13.1186 14.2426H13.0934C11.8235 14.2426 11 13.3075 11 12.124C11 10.9162 11.8478 10 13.1429 10C14.4371 10 15.2336 10.9144 15.2579 12.1204C15.2579 13.3039 14.4371 14.2426 13.1186 14.2426ZM11.4545 27.9991H14.9618V15.7717H11.4545V27.9991Z" fill="white"/>
</g>
</svg>
