<svg width="43" height="56" viewBox="0 0 43 56" fill="none" xmlns="http://www.w3.org/2000/svg">
<g id="Group 232">
<g id="interface">
<path id="Shape" d="M21.5034 0.624878C10.1325 0.624878 0.882812 9.87568 0.882812 21.2455C0.882812 36.4581 19.9081 54.5391 20.7181 55.3021C20.9396 55.509 21.2215 55.6131 21.5034 55.6131C21.7853 55.6131 22.0672 55.509 22.2888 55.3021C23.0987 54.5391 42.124 36.4581 42.124 21.2455C42.124 9.87568 32.8743 0.624878 21.5034 0.624878Z" fill="#007831"/>
</g>
<path id="Vector" fill-rule="evenodd" clip-rule="evenodd" d="M21.1571 13.176C15.276 13.176 10.0609 15.9934 6.77734 20.3559C7.54329 21.6081 8.46908 22.747 9.52143 23.7594C11.0267 20.4425 13.9106 17.8849 17.4406 16.8126C15.9154 17.9182 14.9163 19.7099 14.9163 21.7413C14.9163 25.0981 17.6338 27.8156 20.9906 27.8156C24.3475 27.8156 27.0649 25.0981 27.0649 21.7413C27.0649 19.6166 25.9793 17.7517 24.3275 16.6661C27.1715 17.3921 29.6358 19.0705 31.3542 21.3417C29.9156 25.591 25.8927 28.6481 21.1571 28.6481C21.1039 28.6481 21.0506 28.6481 20.9906 28.6481V28.9412H21.1571C27.3513 28.9412 32.7929 25.6976 35.87 20.8155C32.6064 16.1932 27.2314 13.176 21.1571 13.176ZM20.9906 23.6328C19.9449 23.6328 19.0924 22.787 19.0924 21.7346C19.0924 20.6823 19.9383 19.8364 20.9906 19.8364C22.043 19.8364 22.8888 20.6823 22.8888 21.7346C22.8888 22.787 22.043 23.6328 20.9906 23.6328Z" fill="white"/>
</g>
</svg>
