<svg width="19" height="22" viewBox="0 0 19 22" fill="none" xmlns="http://www.w3.org/2000/svg">
<g id="_Layer_" clip-path="url(#clip0_1776_8310)">
<path id="Vector" d="M14.8701 4.75876H18.4001L14.8701 1.22876V4.75876Z" stroke="white" stroke-linejoin="round"/>
<path id="Vector_2" d="M13.42 12.3387H0.5V17.3387H13.42V12.3387Z" stroke="white" stroke-miterlimit="10"/>
<path id="Vector_3" d="M3.41992 17.3387V21.2188H18.4199V4.74875L14.8899 1.21875H3.41992V12.3387" stroke="white" stroke-miterlimit="10"/>
<path id="Vector_4" d="M4.16914 15.1087V16.0987H3.61914V13.3787H4.69914C5.00914 13.3787 5.25914 13.4587 5.43914 13.6187C5.61914 13.7787 5.70914 13.9887 5.70914 14.2487C5.70914 14.5087 5.61914 14.7187 5.43914 14.8787C5.25914 15.0387 5.00914 15.1187 4.69914 15.1187H4.15914L4.16914 15.1087ZM4.16914 14.6887H4.70914C4.85914 14.6887 4.97914 14.6487 5.05914 14.5687C5.13914 14.4887 5.17914 14.3787 5.17914 14.2487C5.17914 14.1187 5.13914 14.0087 5.05914 13.9287C4.97914 13.8387 4.86914 13.7987 4.70914 13.7987H4.16914V14.6887Z" fill="white"/>
<path id="Vector_5" d="M6.11914 16.0987V13.3787H7.05914C7.38914 13.3787 7.66914 13.4887 7.87914 13.6987C8.09914 13.9087 8.19914 14.1887 8.19914 14.5187V14.9687C8.19914 15.2987 8.08914 15.5787 7.87914 15.7887C7.65914 15.9987 7.38914 16.1087 7.05914 16.1087H6.11914V16.0987ZM6.66914 13.7987V15.6787H7.02914C7.22914 15.6787 7.37914 15.6087 7.48914 15.4787C7.59914 15.3487 7.65914 15.1787 7.65914 14.9587V14.5087C7.65914 14.2987 7.59914 14.1287 7.48914 13.9987C7.37914 13.8687 7.22914 13.7987 7.02914 13.7987H6.66914Z" fill="white"/>
<path id="Vector_6" d="M10.3209 14.9588H9.18086V16.0888H8.63086V13.3688H10.5109V13.7888H9.18086V14.5388H10.3209V14.9588Z" fill="white"/>
</g>
<defs>
<clipPath id="clip0_1776_8310">
<rect width="18.92" height="21" fill="white" transform="translate(0 0.71875)"/>
</clipPath>
</defs>
</svg>
