<svg width="20" height="20" viewBox="0 0 20 20" fill="none" xmlns="http://www.w3.org/2000/svg">
<g id="communication / 17 - communication, call, mobile, phone, telephone icon">
<path id="Shape" fill-rule="evenodd" clip-rule="evenodd" d="M2.81182 3.05289C2.84055 2.90421 2.9671 2.79292 3.12062 2.78133L6.83095 2.50126C7.19173 2.47403 7.5113 2.72856 7.55896 3.0811L8.00022 6.34536C8.02817 6.55214 7.95655 6.75992 7.80648 6.90741L6.35443 8.33457C6.08819 8.59624 6.08819 9.0205 6.35443 9.28217L10.8633 13.7137C11.1295 13.9754 11.5612 13.9754 11.8274 13.7137L13.2988 12.2676C13.4378 12.1309 13.6301 12.0599 13.8263 12.0728L16.865 12.2723C17.2257 12.296 17.5049 12.5923 17.5013 12.9477L17.4606 16.8727C17.4589 17.0327 17.3424 17.1693 17.1823 17.1987C13.1894 17.9319 8.89773 17.4503 5.7272 14.3342C2.55176 11.2132 2.05327 6.97946 2.81182 3.05289Z" stroke="#202020" stroke-linecap="round" stroke-linejoin="round"/>
</g>
</svg>
