<svg width="40" height="40" viewBox="0 0 40 40" fill="none" xmlns="http://www.w3.org/2000/svg">
<g id="sprache">
<circle id="Ellipse 58" cx="20" cy="20" r="20" fill="#007831"/>
<g id="ico_language">
<g id="Group 72">
<path id="Vector" d="M19.9998 28.9996C24.9702 28.9996 28.9996 24.9702 28.9996 19.9998C28.9996 15.0293 24.9702 11 19.9998 11C15.0293 11 11 15.0293 11 19.9998C11 24.9702 15.0293 28.9996 19.9998 28.9996Z" stroke="white" stroke-miterlimit="10"/>
<path id="Vector_2" d="M20 11V29" stroke="white" stroke-miterlimit="10"/>
<path id="Vector_3" d="M20.0001 11C17.8364 11 14.5586 14.4293 14.5586 20.0002C14.5586 25.5711 17.8286 29 20.0001 29" stroke="white" stroke-miterlimit="10"/>
<path id="Vector_4" d="M20 11C22.1634 11 25.4416 14.4289 25.4416 19.9998C25.4416 25.5707 22.1715 28.9996 20 28.9996" stroke="white" stroke-miterlimit="10"/>
<path id="Vector_5" d="M11 20H14.0002H15.5003H29" stroke="white" stroke-miterlimit="10"/>
</g>
</g>
</g>
</svg>
