<svg width="40" height="40" viewBox="0 0 40 40" fill="none" xmlns="http://www.w3.org/2000/svg">
<g id="support">
<circle id="Ellipse 60" cx="20" cy="20" r="20" fill="#F7FD36"/>
<g id="ico_contact">
<g id="Group 111">
<path id="Vector" d="M12.373 19.3077V17.3471C12.373 13.289 15.731 10 19.8727 10C24.0144 10 27.3723 13.289 27.3723 17.3467V19.3073" stroke="#202020" stroke-miterlimit="10"/>
<path id="Vector_2" d="M11.3179 19.3076H13.5723V26.1121H11.3179C10.5904 26.1121 10 25.5337 10 24.8211V20.5986C10 19.886 10.5904 19.3076 11.3179 19.3076Z" stroke="#202020" stroke-miterlimit="10"/>
<path id="Vector_3" d="M28.4282 26.1113H26.1737V19.3069H28.4282C29.1557 19.3069 29.7461 19.8853 29.7461 20.5979V24.8203C29.7461 25.533 29.1557 26.1113 28.4282 26.1113Z" stroke="#202020" stroke-miterlimit="10"/>
<path id="Vector_4" d="M21.6878 27.7642H19.4496C18.8345 27.7642 18.3359 28.2526 18.3359 28.8551V28.9088C18.3359 29.5113 18.8345 29.9997 19.4496 29.9997H21.6878C22.3028 29.9997 22.8014 29.5113 22.8014 28.9088V28.8551C22.8014 28.2526 22.3028 27.7642 21.6878 27.7642Z" stroke="#202020" stroke-miterlimit="10"/>
<path id="Vector_5" d="M27.9607 26.1113C27.9607 26.1113 27.1063 28.8547 22.8008 28.8547" stroke="#202020" stroke-miterlimit="10"/>
</g>
</g>
</g>
</svg>
