<svg width="86" height="86" viewBox="0 0 86 86" fill="none" xmlns="http://www.w3.org/2000/svg">
<g id="ico_support">
<g id="Ellipse 21" filter="url(#filter0_d_1776_6760)">
<circle cx="43" cy="43" r="32" fill="#F7FD36"/>
</g>
<g id="Group 111">
<path id="Vector" d="M30.0518 41.2113V37.7965C30.0518 30.7286 35.7811 25 42.8475 25C49.9139 25 55.6432 30.7286 55.6432 37.7957V41.2105" stroke="#202020" stroke-miterlimit="10"/>
<path id="Vector_2" d="M28.2485 41.2109H32.0951V53.0623H28.2485C27.0073 53.0623 26 52.0549 26 50.8137V43.4595C26 42.2183 27.0073 41.2109 28.2485 41.2109Z" stroke="#202020" stroke-miterlimit="10"/>
<path id="Vector_3" d="M57.4409 53.0613H53.5944V41.2099H57.4409C58.6821 41.2099 59.6895 42.2173 59.6895 43.4585V50.8127C59.6895 52.0539 58.6821 53.0613 57.4409 53.0613Z" stroke="#202020" stroke-miterlimit="10"/>
<path id="Vector_4" d="M45.9424 55.9402H42.1237C41.0743 55.9402 40.2236 56.7909 40.2236 57.8402V57.9339C40.2236 58.9833 41.0743 59.8339 42.1237 59.8339H45.9424C46.9918 59.8339 47.8425 58.9833 47.8425 57.9339V57.8402C47.8425 56.7909 46.9918 55.9402 45.9424 55.9402Z" stroke="#202020" stroke-miterlimit="10"/>
<path id="Vector_5" d="M56.6427 53.0613C56.6427 53.0613 55.1849 57.8394 47.8389 57.8394" stroke="#202020" stroke-miterlimit="10"/>
</g>
</g>
<defs>
<filter id="filter0_d_1776_6760" x="0" y="0" width="86" height="86" filterUnits="userSpaceOnUse" color-interpolation-filters="sRGB">
<feFlood flood-opacity="0" result="BackgroundImageFix"/>
<feColorMatrix in="SourceAlpha" type="matrix" values="0 0 0 0 0 0 0 0 0 0 0 0 0 0 0 0 0 0 127 0" result="hardAlpha"/>
<feOffset/>
<feGaussianBlur stdDeviation="5.5"/>
<feComposite in2="hardAlpha" operator="out"/>
<feColorMatrix type="matrix" values="0 0 0 0 0.831373 0 0 0 0 0.847059 0 0 0 0 0.27451 0 0 0 1 0"/>
<feBlend mode="normal" in2="BackgroundImageFix" result="effect1_dropShadow_1776_6760"/>
<feBlend mode="normal" in="SourceGraphic" in2="effect1_dropShadow_1776_6760" result="shape"/>
</filter>
</defs>
</svg>
