<svg width="24" height="24" viewBox="0 0 24 24" fill="none" xmlns="http://www.w3.org/2000/svg">
<g id="Layer 2">
<g id="Layer 1">
<path id="Vector" d="M17.4182 14.3811C17.1217 14.2323 15.6598 13.5121 15.3874 13.4137C15.1149 13.3141 14.9169 13.2648 14.7188 13.5625C14.5208 13.859 13.9507 14.5299 13.7766 14.728C13.6038 14.926 13.4297 14.95 13.1333 14.8012C12.2571 14.4524 11.4485 13.9536 10.7436 13.3273C10.0934 12.7263 9.53601 12.0322 9.08959 11.2676C8.91675 10.9699 9.07159 10.8091 9.22042 10.6615C9.35365 10.5282 9.51808 10.3146 9.66572 10.1406C9.78799 9.99031 9.88822 9.82339 9.96338 9.64485C10.0029 9.5628 10.0213 9.47217 10.0169 9.38119C10.0125 9.29021 9.98546 9.20178 9.93818 9.12394C9.86376 8.9751 9.26963 7.51198 9.02238 6.91665C8.78112 6.33813 8.53627 6.41614 8.35263 6.40654C8.17979 6.39814 7.98175 6.39574 7.7837 6.39574C7.63305 6.39994 7.4849 6.43527 7.34857 6.49951C7.21224 6.56375 7.09068 6.65551 6.99153 6.76902C6.65549 7.08725 6.38941 7.47199 6.21024 7.89872C6.03108 8.32545 5.94276 8.78482 5.9509 9.24756C6.04728 10.3689 6.46903 11.4377 7.16437 12.3226C8.43895 14.2335 10.1886 15.7801 12.2415 16.8104C12.7952 17.0483 13.3609 17.2574 13.9363 17.437C14.5428 17.6211 15.184 17.661 15.8087 17.5534C16.2224 17.4696 16.6142 17.3008 16.9595 17.0579C17.3047 16.8149 17.5958 16.503 17.8143 16.1419C18.0093 15.6977 18.0694 15.206 17.9871 14.728C17.9139 14.6031 17.7159 14.5299 17.4182 14.3811ZM20.4093 3.4839C18.3688 1.44388 15.6564 0.214878 12.7773 0.025711C9.89811 -0.163456 7.04831 0.700101 4.75842 2.45561C2.46854 4.21112 0.894626 6.73895 0.329705 9.56847C-0.235216 12.398 0.247353 15.3364 1.68757 17.8366L0 24L6.30618 22.3472C8.05035 23.2969 10.0047 23.7946 11.9906 23.7947H11.9954C14.3481 23.7935 16.6475 23.0951 18.6034 21.7875C20.5592 20.48 22.0836 18.6222 22.984 16.4486C23.8844 14.2751 24.1203 11.8835 23.6621 9.57594C23.2038 7.26837 22.0719 5.14841 20.4093 3.48389V3.4839ZM17.249 20.2744C15.6744 21.2613 13.8538 21.785 11.9954 21.7855H11.9906C10.2201 21.7854 8.48224 21.3091 6.95912 20.4064L6.59784 20.1927L2.85543 21.1746L3.85404 17.5258L3.61999 17.1513C2.58122 15.4947 2.05699 13.5673 2.11359 11.6129C2.17019 9.65838 2.80507 7.76456 3.93797 6.1709C5.07086 4.57723 6.65088 3.35529 8.47823 2.65958C10.3056 1.96387 12.2982 1.82565 14.2041 2.26239C16.11 2.69913 17.8436 3.69121 19.1857 5.1132C20.5278 6.53518 21.4181 8.32319 21.744 10.2511C22.0699 12.1791 21.8168 14.1604 21.0167 15.9445C20.2166 17.7286 18.9054 19.2354 17.249 20.2744Z" fill="#202020"/>
</g>
</g>
</svg>
