<svg width="20" height="20" viewBox="0 0 20 20" fill="none" xmlns="http://www.w3.org/2000/svg">
<g id="xing-logo-svgrepo-com 1">
<g id="Group">
<g id="Group_2">
<path id="Vector" d="M4.80948 14.0148C5.11561 14.0148 5.37783 13.8296 5.59546 13.4585C7.58653 9.92785 8.62227 8.09006 8.70312 7.94447L6.72018 4.48654C6.51051 4.12379 6.24444 3.94238 5.92221 3.94238H3.03215C2.84645 3.94238 2.71784 4.00284 2.64517 4.12376C2.55641 4.24467 2.56048 4.39389 2.6572 4.57097L4.60387 7.94447C4.61179 7.95305 4.61179 7.95672 4.60387 7.95672L1.54465 13.374C1.46428 13.5275 1.46428 13.6725 1.54465 13.809C1.62505 13.9465 1.75026 14.0148 1.91942 14.0148H4.80948Z" fill="white"/>
<path id="Vector_2" d="M18.0735 0H15.1595C14.8452 0 14.587 0.181373 14.3858 0.544156C10.2503 7.87985 8.10999 11.677 7.96484 11.9345L12.0638 19.4559C12.2572 19.8186 12.5233 20 12.8618 20H15.7516C15.9289 20 16.058 19.9395 16.1386 19.8186C16.219 19.6812 16.2151 19.5319 16.1266 19.371L12.0641 11.9345V11.9227L18.4485 0.628812C18.5371 0.459686 18.5371 0.31091 18.4485 0.181595C18.3758 0.0604577 18.2508 0 18.0735 0Z" fill="white"/>
</g>
</g>
</g>
</svg>
