<svg width="40" height="40" viewBox="0 0 40 40" fill="#fff" xmlns="http://www.w3.org/2000/svg">
<g id="ico_">
<path id="Vector" d="M30.7007 16.026C30.4405 14.3402 29.5622 13.5307 27.8309 13.3207C26.5476 13.1642 25.2564 13.1203 23.9673 13.063C23.8558 13.0573 23.7208 13.126 23.6288 13H16.2127C16.1227 13.1298 15.9877 13.0611 15.8762 13.0649C14.6105 13.126 13.3448 13.1642 12.085 13.3207C10.5024 13.5193 9.60839 14.3459 9.34039 15.8828C9.19758 16.7037 9.13889 17.5342 9.07043 18.3627C9.0626 18.462 9.12716 18.5842 9 18.6586V22.3433C9.12716 22.4177 9.0626 22.5418 9.07043 22.6392C9.14672 23.5785 9.20149 24.5197 9.40886 25.4437C9.67099 26.6082 10.5024 27.3891 11.7035 27.6067C12.2572 27.706 12.8147 27.7633 13.3742 27.7995C15.841 27.958 18.3098 28.0229 20.7825 27.9962C23.1965 27.9695 25.6105 27.9485 28.0128 27.6697C29.4722 27.4998 30.372 26.6712 30.642 25.2642C30.8083 24.4013 30.8807 23.5288 30.9296 22.6525C31.0489 20.438 31.0372 18.2272 30.6987 16.0279L30.7007 16.026ZM17.8403 23.6949V17.3051C19.7437 18.3723 21.6119 19.4204 23.5369 20.499C21.6217 21.5739 19.7496 22.6239 17.8403 23.6949Z" fill="#fff"/>
</g>
</svg>
